# xmcd CD database file
#
# Track frame offsets:
#	150
#	11647
#	25747
#	39245
#	51984
#	71758
#	87543
#	102122
#	116036
#	135313
#
# Disc length: 2118 seconds
#
# Revision: 0
# Processed by: cddbd v1.4PL0 Copyright (c) Steve Scherf et al.
# Submitted via: CDex 1.40Release
#
DISCID=7f08440a
DTITLE=Hudson ans the Hoo Doo Cats - Up to Now
DYEAR=1900
DGENRE=Blues
TTITLE0=Flare It Up
TTITLE1=Super Glue
TTITLE2=I Like My Women Just A Little Bit Fat
TTITLE3=We Got the Sweetest Girls In Texas
TTITLE4=I Like Kitties
TTITLE5=Baby's Got A LockOn My Heart
TTITLE6=Who Do?
TTITLE7=Yard Mowin'Blues
TTITLE8=I'll Never Walk Out Your Door
TTITLE9=No Left Turn Unstoned
EXTD=ID3G: 0
EXTT0=
EXTT1=
EXTT2=
EXTT3=
EXTT4=
EXTT5=
EXTT6=
EXTT7=
EXTT8=
EXTT9=
PLAYORDER=
